<?xml version="1.0" encoding="utf-8"?>
<svg viewBox="0 0 500 500" xmlns="http://www.w3.org/2000/svg">
  <path id="Выделение" stroke="black" stroke-width="1" d="M 114 151.9 C 114 151.9 123.44 152.92 123.44 152.92 C 123.44 152.92 127.29 162.9 127.29 162.9 C 127.29 162.9 134.88 191.9 134.88 191.9 C 134.88 191.9 157.42 276.9 157.42 276.9 C 157.42 276.9 170 326.9 170 326.9 C 173.33 323 173.61 318.75 174.88 313.9 C 174.88 313.9 181.29 289.9 181.29 289.9 C 181.29 289.9 207 192.9 207 192.9 C 207 192.9 214.63 163.9 214.63 163.9 C 215.27 161.39 216.8 154.39 218.72 152.89 C 220.49 151.52 225.71 151.9 228 151.9 C 228 151.9 215.88 197.9 215.88 197.9 C 215.88 197.9 187.87 303.9 187.87 303.9 C 187.87 303.9 178.63 338.9 178.63 338.9 C 177.14 344.74 175.81 349.85 168.22 347.61 C 164.57 346.53 163.48 339.22 162.63 335.9 C 162.63 335.9 153.42 300.9 153.42 300.9 C 153.42 300.9 125.88 196.9 125.88 196.9 C 125.88 196.9 114 151.9 114 151.9 Z M 132 151.9 C 132 151.9 142 151.9 142 151.9 C 142 151.9 149.12 178.9 149.12 178.9 C 149.12 178.9 165.87 242.9 165.87 242.9 C 165.87 242.9 176.9 286.9 176.9 286.9 C 176.9 286.9 174 304.9 174 304.9 C 174 304.9 172 304.9 172 304.9 C 172 304.9 161.15 262.9 161.15 262.9 C 161.15 262.9 141.12 186.9 141.12 186.9 C 141.12 186.9 132 151.9 132 151.9 Z M 150 151.9 C 152.25 151.9 156.64 151.6 158.44 152.92 C 160.17 154.2 161.01 157.88 161.58 159.9 C 161.58 159.9 166.29 177.9 166.29 177.9 C 166.29 177.9 182.37 238.9 182.37 238.9 C 185.24 250.06 187.24 252.51 184.15 263.9 C 183.23 267.31 183.03 268.91 181 271.9 C 181 271.9 162.58 201.9 162.58 201.9 C 162.58 201.9 150 151.9 150 151.9 Z M 167 151.9 C 169.29 151.9 174.51 151.52 176.28 152.89 C 178.8 154.85 181.63 169.11 182.71 172.9 C 182.71 172.9 190.87 203.9 190.87 203.9 C 193.64 214.95 196.3 217.44 193.37 228.9 C 192.49 232.35 191.88 234.83 190 237.9 C 190 237.9 179.85 200.9 179.85 200.9 C 179.85 200.9 167 151.9 167 151.9 Z M 184 347.9 C 184 347.9 196.12 300.9 196.12 300.9 C 196.12 300.9 223.63 196.9 223.63 196.9 C 223.63 196.9 232.13 164.9 232.13 164.9 C 232.13 164.9 236.56 152.92 236.56 152.92 C 236.56 152.92 245 151.9 245 151.9 C 245 151.9 238.42 178.9 238.42 178.9 C 238.42 178.9 229.42 212.9 229.42 212.9 C 229.42 212.9 208.12 293.9 208.12 293.9 C 208.12 293.9 194 347.9 194 347.9 C 194 347.9 184 347.9 184 347.9 Z M 253 151.9 C 253 151.9 263 151.9 263 151.9 C 263 151.9 248.88 205.9 248.88 205.9 C 248.88 205.9 223.29 302.9 223.29 302.9 C 223.29 302.9 214.87 334.9 214.87 334.9 C 214.87 334.9 210.44 346.88 210.44 346.88 C 210.44 346.88 201 347.9 201 347.9 C 201 347.9 209.88 314.9 209.88 314.9 C 209.88 314.9 223.88 261.9 223.88 261.9 C 223.88 261.9 242.15 192.9 242.15 192.9 C 242.15 192.9 253 151.9 253 151.9 Z M 219 347.9 C 219 347.9 232.12 297.9 232.12 297.9 C 232.12 297.9 258.85 196.9 258.85 196.9 C 258.85 196.9 267.29 164.9 267.29 164.9 C 267.29 164.9 271.56 152.92 271.56 152.92 C 271.56 152.92 281 151.9 281 151.9 C 281 151.9 293.58 195.9 293.58 195.9 C 293.58 195.9 304 228.9 304 228.9 C 304.58 222.04 306.94 215.54 308.63 208.9 C 308.63 208.9 319.15 168.9 319.15 168.9 C 322.9 155.04 321.84 152.06 330 151.9 C 330 151.9 334 151.9 334 151.9 C 334 151.9 321.12 200.9 321.12 200.9 C 321.12 200.9 293.71 303.9 293.71 303.9 C 293.71 303.9 284.71 337.9 284.71 337.9 C 282.99 343.94 282.56 350.02 274.14 347.59 C 270.03 346.39 267.34 333.07 266.14 328.9 C 266.14 328.9 249 270.9 249 270.9 C 249 270.9 233.87 329.9 233.87 329.9 C 233.87 329.9 228.28 346.91 228.28 346.91 C 228.28 346.91 223 347.9 223 347.9 C 223 347.9 219 347.9 219 347.9 Z M 341 151.9 C 341 151.9 351 151.9 351 151.9 C 351 151.9 340.63 192.9 340.63 192.9 C 340.63 192.9 311.63 302.9 311.63 302.9 C 311.63 302.9 300 347.9 300 347.9 C 300 347.9 290 347.9 290 347.9 C 290 347.9 304.12 292.9 304.12 292.9 C 304.12 292.9 328.42 200.9 328.42 200.9 C 328.42 200.9 341 151.9 341 151.9 Z M 307 347.9 C 307 347.9 347 196.9 347 196.9 C 347 196.9 355.42 164.9 355.42 164.9 C 355.42 164.9 359.72 152.89 359.72 152.89 C 359.72 152.89 369 151.9 369 151.9 C 369 151.9 356.88 197.9 356.88 197.9 C 356.88 197.9 329.13 302.9 329.13 302.9 C 329.13 302.9 320.63 334.9 320.63 334.9 C 320.63 334.9 316.44 346.88 316.44 346.88 C 316.44 346.88 307 347.9 307 347.9 Z M 325 347.9 C 325 347.9 336.12 304.9 336.12 304.9 C 336.12 304.9 364.63 196.9 364.63 196.9 C 364.63 196.9 372.63 166.9 372.63 166.9 C 372.63 166.9 376.85 153.5 376.85 153.5 C 376.85 153.5 386 151.9 386 151.9 C 386 151.9 374.37 198.9 374.37 198.9 C 374.37 198.9 346.63 303.9 346.63 303.9 C 346.63 303.9 338.37 334.9 338.37 334.9 C 338.37 334.9 334.28 346.91 334.28 346.91 C 334.28 346.91 325 347.9 325 347.9 Z M 276 171.9 C 269.59 184.37 273.36 190.68 276.86 202.9 C 276.86 202.9 287.29 238.9 287.29 238.9 C 289.02 244.9 292.11 258.17 295 262.9 C 295 262.9 297.66 246.9 297.66 246.9 C 297.66 246.9 288.71 214.9 288.71 214.9 C 288.71 214.9 276 171.9 276 171.9 Z M 267 205.9 C 260.9 217.77 264.62 224.17 268 235.9 C 268 235.9 278.71 272.9 278.71 272.9 C 280.31 278.48 283.41 291.55 286 295.9 C 286 295.9 288.87 280.9 288.87 280.9 C 288.87 280.9 285.14 265.9 285.14 265.9 C 285.14 265.9 276.42 235.9 276.42 235.9 C 276.42 235.9 267 205.9 267 205.9 Z M 259 238.9 C 253.23 246.1 255.13 254.86 257.42 262.9 C 257.42 262.9 270 306.9 270 306.9 C 271.58 312.38 274.43 324.57 277 328.9 C 277 328.9 280.21 314.9 280.21 314.9 C 280.21 314.9 272.34 285.9 272.34 285.9 C 272.34 285.9 259 238.9 259 238.9 Z" style=""/>
  <text style="white-space: pre; fill: rgb(51, 51, 51); font-family: Arial, sans-serif; font-size: 21.8px;" x="140.006" y="412.847"> </text>
</svg>