<?xml version="1.0" encoding="utf-8"?>
<svg viewBox="0 0 500 500" xmlns="http://www.w3.org/2000/svg">
  <path id="Выделение" stroke="black" stroke-width="1" d="M 35 95.484 C 35 95.484 49.924 97.091 49.924 97.091 C 49.924 97.091 56.011 112.81 56.011 112.81 C 56.011 112.81 68.009 158.488 68.009 158.488 C 68.009 158.488 103.643 292.37 103.643 292.37 C 103.643 292.37 123.53 371.124 123.53 371.124 C 128.794 364.982 129.236 358.288 131.244 350.649 C 131.244 350.649 141.377 312.846 141.377 312.846 C 141.377 312.846 182.023 160.063 182.023 160.063 C 182.023 160.063 194.084 114.385 194.084 114.385 C 195.095 110.431 197.514 99.406 200.55 97.043 C 203.348 94.885 211.601 95.484 215.22 95.484 C 215.22 95.484 196.061 167.938 196.061 167.938 C 196.061 167.938 151.781 334.898 151.781 334.898 C 151.781 334.898 137.173 390.026 137.173 390.026 C 134.817 399.225 132.714 407.273 120.714 403.745 C 114.945 402.043 113.223 390.53 111.879 385.3 C 111.879 385.3 97.319 330.173 97.319 330.173 C 97.319 330.173 53.781 166.363 53.781 166.363 C 53.781 166.363 35 95.484 35 95.484 Z M 63.456 95.484 C 63.456 95.484 79.264 95.484 79.264 95.484 C 79.264 95.484 90.52 138.012 90.52 138.012 C 90.52 138.012 117.001 238.817 117.001 238.817 C 117.001 238.817 134.437 308.122 134.437 308.122 C 134.437 308.122 129.854 336.473 129.854 336.473 C 129.854 336.473 126.691 336.473 126.691 336.473 C 126.691 336.473 109.538 270.319 109.538 270.319 C 109.538 270.319 77.874 150.612 77.874 150.612 C 77.874 150.612 63.456 95.484 63.456 95.484 Z M 91.911 95.484 C 95.469 95.484 102.409 95.012 105.254 97.091 C 107.989 99.107 109.318 104.903 110.219 108.084 C 110.219 108.084 117.664 136.436 117.664 136.436 C 117.664 136.436 143.084 232.516 143.084 232.516 C 147.623 250.095 150.783 253.953 145.899 271.895 C 144.445 277.265 144.129 279.785 140.919 284.495 C 140.919 284.495 111.8 174.238 111.8 174.238 C 111.8 174.238 91.911 95.484 91.911 95.484 Z M 118.787 95.484 C 122.407 95.484 130.658 94.885 133.457 97.043 C 137.441 100.13 141.916 122.591 143.623 128.561 C 143.623 128.561 156.523 177.389 156.523 177.389 C 160.901 194.793 165.107 198.715 160.475 216.766 C 159.085 222.2 158.119 226.106 155.146 230.942 C 155.146 230.942 139.101 172.664 139.101 172.664 C 139.101 172.664 118.787 95.484 118.787 95.484 Z M 145.661 404.202 C 145.661 404.202 164.823 330.173 164.823 330.173 C 164.823 330.173 208.312 166.363 208.312 166.363 C 208.312 166.363 221.749 115.96 221.749 115.96 C 221.749 115.96 228.754 97.091 228.754 97.091 C 228.754 97.091 242.096 95.484 242.096 95.484 C 242.096 95.484 231.693 138.012 231.693 138.012 C 231.693 138.012 217.464 191.565 217.464 191.565 C 217.464 191.565 183.793 319.147 183.793 319.147 C 183.793 319.147 161.47 404.202 161.47 404.202 C 161.47 404.202 145.661 404.202 145.661 404.202 Z M 254.743 95.484 C 254.743 95.484 270.551 95.484 270.551 95.484 C 270.551 95.484 248.23 180.539 248.23 180.539 C 248.23 180.539 207.775 333.323 207.775 333.323 C 207.775 333.323 194.464 383.726 194.464 383.726 C 194.464 383.726 187.461 402.595 187.461 402.595 C 187.461 402.595 172.537 404.202 172.537 404.202 C 172.537 404.202 186.574 352.224 186.574 352.224 C 186.574 352.224 208.707 268.744 208.707 268.744 C 208.707 268.744 237.589 160.063 237.589 160.063 C 237.589 160.063 254.743 95.484 254.743 95.484 Z M 200.993 404.202 C 200.993 404.202 221.733 325.448 221.733 325.448 C 221.733 325.448 263.992 166.363 263.992 166.363 C 263.992 166.363 277.334 115.96 277.334 115.96 C 277.334 115.96 284.083 97.091 284.083 97.091 C 284.083 97.091 299.007 95.484 299.007 95.484 C 299.007 95.484 318.894 164.788 318.894 164.788 C 318.894 164.788 335.368 216.766 335.368 216.766 C 336.285 205.961 340.014 195.723 342.688 185.264 C 342.688 185.264 359.318 122.26 359.318 122.26 C 365.246 100.429 363.57 95.736 376.47 95.484 C 376.47 95.484 382.794 95.484 382.794 95.484 C 382.794 95.484 362.432 172.664 362.432 172.664 C 362.432 172.664 319.101 334.898 319.101 334.898 C 319.101 334.898 304.873 388.451 304.873 388.451 C 302.152 397.965 301.474 407.541 288.163 403.713 C 281.666 401.823 277.413 380.843 275.514 374.275 C 275.514 374.275 248.419 282.92 248.419 282.92 C 248.419 282.92 224.501 375.85 224.501 375.85 C 224.501 375.85 215.663 402.642 215.663 402.642 C 215.663 402.642 207.317 404.202 207.317 404.202 C 207.317 404.202 200.993 404.202 200.993 404.202 Z M 393.861 95.484 C 393.861 95.484 409.669 95.484 409.669 95.484 C 409.669 95.484 393.275 160.063 393.275 160.063 C 393.275 160.063 347.431 333.323 347.431 333.323 C 347.431 333.323 329.044 404.202 329.044 404.202 C 329.044 404.202 313.236 404.202 313.236 404.202 C 313.236 404.202 335.557 317.571 335.557 317.571 C 335.557 317.571 373.973 172.664 373.973 172.664 C 373.973 172.664 393.861 95.484 393.861 95.484 Z M 340.111 404.202 C 340.111 404.202 403.346 166.363 403.346 166.363 C 403.346 166.363 416.657 115.96 416.657 115.96 C 416.657 115.96 423.454 97.043 423.454 97.043 C 423.454 97.043 438.124 95.484 438.124 95.484 C 438.124 95.484 418.964 167.938 418.964 167.938 C 418.964 167.938 375.095 333.323 375.095 333.323 C 375.095 333.323 361.658 383.726 361.658 383.726 C 361.658 383.726 355.033 402.595 355.033 402.595 C 355.033 402.595 340.111 404.202 340.111 404.202 Z M 368.567 404.202 C 368.567 404.202 386.146 336.473 386.146 336.473 C 386.146 336.473 431.215 166.363 431.215 166.363 C 431.215 166.363 443.864 119.111 443.864 119.111 C 443.864 119.111 450.534 98.004 450.534 98.004 C 450.534 98.004 465 95.484 465 95.484 C 465 95.484 446.614 169.513 446.614 169.513 C 446.614 169.513 402.761 334.898 402.761 334.898 C 402.761 334.898 389.702 383.726 389.702 383.726 C 389.702 383.726 383.237 402.642 383.237 402.642 C 383.237 402.642 368.567 404.202 368.567 404.202 Z M 291.104 126.986 C 280.969 146.627 286.93 156.566 292.463 175.813 C 292.463 175.813 308.951 232.516 308.951 232.516 C 311.686 241.967 316.571 262.869 321.139 270.319 C 321.139 270.319 325.344 245.118 325.344 245.118 C 325.344 245.118 311.195 194.715 311.195 194.715 C 311.195 194.715 291.104 126.986 291.104 126.986 Z M 276.874 180.539 C 267.231 199.235 273.113 209.316 278.456 227.791 C 278.456 227.791 295.388 286.069 295.388 286.069 C 297.915 294.859 302.818 315.446 306.911 322.297 C 306.911 322.297 311.449 298.671 311.449 298.671 C 311.449 298.671 305.552 275.044 305.552 275.044 C 305.552 275.044 291.767 227.791 291.767 227.791 C 291.767 227.791 276.874 180.539 276.874 180.539 Z M 264.227 232.516 C 255.106 243.857 258.111 257.656 261.73 270.319 C 261.73 270.319 281.618 339.624 281.618 339.624 C 284.114 348.255 288.621 367.455 292.683 374.275 C 292.683 374.275 297.758 352.224 297.758 352.224 C 297.758 352.224 285.317 306.546 285.317 306.546 C 285.317 306.546 264.227 232.516 264.227 232.516 Z" style=""/>
  <text style="white-space: pre; fill: rgb(51, 51, 51); font-family: Arial, sans-serif; font-size: 21.8px;" x="140.006" y="412.847"> </text>
</svg>