<?xml version="1.0" encoding="UTF-8"?>
<svg xmlns="http://www.w3.org/2000/svg" xmlns:xlink="http://www.w3.org/1999/xlink" width="38px" height="38px" viewBox="0 0 38 38" version="1.1">
<g id="surface1">
<path style=" stroke:none;fill-rule:evenodd;fill:rgb(0%,0%,0%);fill-opacity:1;" d="M 28.402344 14.925781 C 29.640625 16.636719 30.304688 18.695312 30.304688 20.804688 C 30.304688 22.914062 29.640625 24.972656 28.402344 26.6875 L 31 28.632812 C 32.691406 26.316406 33.589844 23.515625 33.554688 20.648438 C 33.519531 17.777344 32.550781 15 30.800781 12.726562 L 29.308594 14.050781 Z M 28.402344 14.925781 "/>
<path style=" stroke:none;fill-rule:evenodd;fill:rgb(0%,0%,0%);fill-opacity:1;" d="M 33.308594 30.367188 L 24.578125 23.808594 C 25.863281 22.15625 25.964844 19.875 24.835938 18.113281 L 29.015625 14.382812 L 33.390625 10.339844 C 33.527344 10.210938 33.605469 10.03125 33.605469 9.839844 C 33.609375 9.652344 33.539062 9.472656 33.40625 9.335938 L 32.800781 8.738281 C 29.679688 5.621094 25.484375 3.8125 21.074219 3.671875 L 21.09375 1.300781 C 21.109375 1.140625 21.097656 0.980469 21.058594 0.828125 C 21.011719 0.671875 20.933594 0.527344 20.828125 0.40625 C 20.503906 0.0234375 19.964844 -0.09375 19.511719 0.125 C 19.363281 0.191406 19.230469 0.285156 19.117188 0.40625 C 19.011719 0.519531 18.933594 0.660156 18.890625 0.808594 C 18.832031 0.960938 18.820312 1.125 18.851562 1.285156 L 18.835938 3.726562 C 17.78125 3.832031 16.738281 4.03125 15.722656 4.324219 L 15.738281 1.28125 C 15.753906 1.125 15.742188 0.964844 15.703125 0.808594 C 15.65625 0.65625 15.578125 0.511719 15.472656 0.386719 C 15.148438 0.0078125 14.609375 -0.109375 14.15625 0.105469 C 14.007812 0.171875 13.875 0.269531 13.765625 0.386719 C 13.65625 0.503906 13.578125 0.640625 13.53125 0.792969 C 13.476562 0.945312 13.464844 1.109375 13.496094 1.265625 L 13.445312 5.152344 C 9.855469 6.730469 6.90625 9.484375 5.089844 12.960938 C 3.285156 16.414062 2.726562 20.386719 3.511719 24.207031 C 4.300781 28.035156 6.378906 31.480469 9.398438 33.964844 C 12.4375 36.464844 16.230469 37.867188 20.167969 37.945312 L 32.875 38 C 33.066406 38 33.246094 37.925781 33.382812 37.792969 C 33.515625 37.660156 33.589844 37.480469 33.589844 37.292969 L 33.589844 30.949219 C 33.589844 30.722656 33.484375 30.507812 33.308594 30.367188 Z M 20.425781 34.886719 C 17.296875 34.867188 14.261719 33.832031 11.777344 31.933594 C 9.308594 30.046875 7.53125 27.398438 6.726562 24.394531 C 5.929688 21.40625 6.148438 18.234375 7.355469 15.382812 C 8.570312 12.519531 10.695312 10.132812 13.398438 8.597656 L 13.382812 13.222656 C 13.367188 13.382812 13.378906 13.542969 13.417969 13.699219 C 13.464844 13.855469 13.546875 13.996094 13.648438 14.121094 C 13.757812 14.242188 13.890625 14.339844 14.039062 14.402344 C 14.332031 14.542969 14.671875 14.542969 14.964844 14.402344 C 15.113281 14.332031 15.246094 14.238281 15.355469 14.121094 C 15.464844 14.003906 15.542969 13.867188 15.589844 13.714844 C 15.644531 13.5625 15.65625 13.398438 15.621094 13.242188 L 15.640625 7.5625 C 17.210938 7.007812 18.867188 6.726562 20.53125 6.734375 C 23.601562 6.734375 26.585938 7.730469 29.035156 9.5625 C 29.117188 9.628906 29.167969 9.722656 29.175781 9.828125 C 29.183594 9.933594 29.144531 10.035156 29.070312 10.109375 L 22.417969 16.140625 C 21.808594 15.890625 21.15625 15.757812 20.496094 15.753906 C 19.761719 15.75 19.035156 15.898438 18.363281 16.191406 C 17.695312 16.488281 17.101562 16.925781 16.617188 17.476562 C 16.140625 18.023438 15.785156 18.664062 15.570312 19.359375 C 15.359375 20.054688 15.304688 20.785156 15.410156 21.503906 C 15.554688 22.589844 16.058594 23.597656 16.835938 24.375 C 17.617188 25.152344 18.632812 25.65625 19.730469 25.8125 C 20.457031 25.917969 21.199219 25.867188 21.902344 25.652344 L 30.402344 32.039062 C 30.492188 32.105469 30.542969 32.207031 30.546875 32.316406 L 30.527344 34.570312 C 30.527344 34.664062 30.492188 34.753906 30.421875 34.820312 C 30.355469 34.886719 30.265625 34.921875 30.167969 34.921875 Z M 22.503906 20.820312 C 22.5 21.214844 22.382812 21.597656 22.167969 21.929688 C 21.945312 22.253906 21.628906 22.511719 21.261719 22.664062 C 20.898438 22.824219 20.492188 22.859375 20.105469 22.773438 C 19.71875 22.6875 19.359375 22.5 19.074219 22.226562 C 18.496094 21.664062 18.328125 20.804688 18.644531 20.0625 C 18.800781 19.699219 19.058594 19.386719 19.394531 19.167969 C 19.726562 18.953125 20.113281 18.839844 20.511719 18.832031 C 21.042969 18.835938 21.550781 19.046875 21.925781 19.417969 C 22.296875 19.792969 22.507812 20.296875 22.503906 20.820312 Z M 22.503906 20.820312 "/>
</g>
</svg>
