<?xml version="1.0" encoding="UTF-8"?>
<svg xmlns="http://www.w3.org/2000/svg" xmlns:xlink="http://www.w3.org/1999/xlink" width="38px" height="38px" viewBox="0 0 38 38" version="1.1">
<g id="surface1">
<path style=" stroke:none;fill-rule:nonzero;fill:rgb(0%,0%,0%);fill-opacity:1;" d="M 37.96875 19.109375 L 38 18.765625 C 35.921875 18.5625 33.828125 18.542969 31.746094 18.699219 C 32.074219 17.664062 32.246094 16.496094 32.234375 15.167969 C 32.207031 12.34375 31.253906 10.144531 29.761719 8.320312 C 30.046875 6.601562 29.832031 4.886719 29.289062 3.167969 C 27.210938 3.320312 25.214844 4.035156 23.511719 5.234375 C 20.308594 4.589844 17.105469 4.550781 13.902344 5.234375 C 11.902344 3.902344 9.941406 3.246094 8.011719 3.167969 C 7.4375 5.058594 7.351562 6.925781 7.832031 8.757812 C 6.148438 10.527344 5.503906 12.671875 5.535156 15.050781 C 5.554688 16.410156 5.765625 17.621094 6.15625 18.691406 C 4.105469 18.542969 2.046875 18.570312 0 18.765625 L 0.03125 19.113281 C 2.113281 18.910156 4.210938 18.890625 6.296875 19.050781 C 6.371094 19.230469 6.449219 19.410156 6.535156 19.582031 C 4.320312 19.523438 2.324219 19.714844 0.460938 20.167969 L 0.542969 20.503906 C 2.441406 20.046875 4.46875 19.863281 6.734375 19.9375 C 8.230469 22.566406 11.117188 24.113281 15.316406 24.605469 C 14.339844 25.386719 13.816406 26.3125 13.683594 27.355469 L 11.457031 27.355469 C 8.472656 27.355469 7.65625 23.589844 4.558594 23.964844 C 7.5625 25.4375 6.964844 30.140625 11.765625 30.140625 L 13.785156 30.140625 L 13.785156 34.449219 C 13.808594 35.144531 13.5 35.609375 13.003906 35.933594 C 14.726562 36.105469 16.019531 35.257812 16.019531 34.214844 L 16.019531 28.519531 C 16.019531 28.007812 16.558594 27.96875 16.558594 27.96875 L 16.558594 34.621094 C 16.578125 35.285156 16.253906 35.664062 15.90625 36.023438 C 17.425781 36.082031 18.847656 35.785156 18.914062 34.503906 L 18.914062 28.140625 C 18.914062 27.820312 19.441406 27.8125 19.441406 28.140625 L 19.441406 34.207031 C 19.460938 35.285156 20.398438 36.15625 22.386719 36.023438 C 21.859375 35.597656 21.695312 35.167969 21.695312 34.550781 L 21.695312 27.96875 C 21.695312 27.96875 22.246094 27.941406 22.246094 28.519531 L 22.246094 34.066406 C 22.246094 35.300781 23.746094 35.8125 25.457031 35.765625 C 24.894531 35.347656 24.515625 34.851562 24.515625 34.191406 L 24.515625 27.515625 C 24.453125 26.535156 24.050781 25.609375 23.261719 24.75 C 27.097656 24.167969 29.867188 22.652344 31.246094 19.9375 C 33.519531 19.859375 35.554688 20.046875 37.457031 20.507812 L 37.539062 20.167969 C 35.65625 19.710938 33.648438 19.519531 31.410156 19.582031 C 31.492188 19.410156 31.566406 19.238281 31.632812 19.054688 C 33.742188 18.890625 35.859375 18.910156 37.964844 19.113281 Z M 5.902344 24.527344 C 5.808594 24.527344 5.730469 24.46875 5.730469 24.40625 C 5.730469 24.339844 5.808594 24.285156 5.902344 24.285156 C 5.996094 24.285156 6.074219 24.339844 6.074219 24.40625 C 6.074219 24.46875 5.996094 24.523438 5.902344 24.523438 Z M 6.4375 24.886719 C 6.335938 24.886719 6.25 24.828125 6.25 24.753906 C 6.25 24.679688 6.335938 24.621094 6.4375 24.621094 C 6.546875 24.621094 6.628906 24.679688 6.628906 24.753906 C 6.628906 24.828125 6.546875 24.886719 6.4375 24.886719 Z M 6.984375 25.359375 C 6.863281 25.359375 6.765625 25.289062 6.765625 25.203125 C 6.765625 25.117188 6.863281 25.046875 6.984375 25.046875 C 7.109375 25.046875 7.207031 25.117188 7.207031 25.203125 C 7.207031 25.289062 7.109375 25.359375 6.984375 25.359375 Z M 7.515625 25.925781 C 7.375 25.925781 7.257812 25.84375 7.257812 25.742188 C 7.257812 25.640625 7.375 25.558594 7.515625 25.558594 C 7.660156 25.558594 7.777344 25.640625 7.777344 25.742188 C 7.777344 25.84375 7.660156 25.925781 7.515625 25.925781 Z M 8.097656 26.5625 C 7.941406 26.5625 7.8125 26.472656 7.8125 26.363281 C 7.8125 26.25 7.941406 26.15625 8.097656 26.15625 C 8.261719 26.15625 8.390625 26.25 8.390625 26.363281 C 8.390625 26.472656 8.261719 26.5625 8.097656 26.5625 Z M 8.777344 27.210938 C 8.597656 27.210938 8.457031 27.113281 8.457031 26.988281 C 8.457031 26.863281 8.597656 26.761719 8.777344 26.761719 C 8.957031 26.761719 9.097656 26.863281 9.097656 26.988281 C 9.097656 27.113281 8.957031 27.210938 8.777344 27.210938 Z M 9.691406 27.832031 C 9.492188 27.832031 9.332031 27.71875 9.332031 27.582031 C 9.332031 27.441406 9.492188 27.328125 9.691406 27.328125 C 9.886719 27.328125 10.046875 27.441406 10.046875 27.582031 C 10.046875 27.71875 9.890625 27.832031 9.691406 27.832031 Z M 10.824219 28.164062 C 10.628906 28.164062 10.464844 28.046875 10.464844 27.910156 C 10.464844 27.773438 10.628906 27.660156 10.824219 27.660156 C 11.023438 27.660156 11.183594 27.773438 11.183594 27.914062 C 11.183594 28.046875 11.023438 28.164062 10.824219 28.164062 Z M 12.019531 28.199219 C 11.824219 28.199219 11.664062 28.085938 11.664062 27.949219 C 11.664062 27.808594 11.824219 27.699219 12.019531 27.699219 C 12.21875 27.699219 12.375 27.808594 12.375 27.949219 C 12.375 28.085938 12.21875 28.199219 12.019531 28.199219 Z M 13.199219 28.222656 C 13.003906 28.222656 12.84375 28.113281 12.84375 27.96875 C 12.84375 27.832031 13.003906 27.722656 13.199219 27.722656 C 13.398438 27.722656 13.558594 27.832031 13.558594 27.96875 C 13.558594 28.113281 13.398438 28.222656 13.199219 28.222656 Z M 13.199219 28.222656 "/>
</g>
</svg>
