<?xml version="1.0" encoding="UTF-8"?>
<svg xmlns="http://www.w3.org/2000/svg" xmlns:xlink="http://www.w3.org/1999/xlink" width="38px" height="32px" viewBox="0 0 38 32" version="1.1">
<g id="surface1">
<path style=" stroke:none;fill-rule:nonzero;fill:rgb(0%,0%,0%);fill-opacity:1;" d="M 38.011719 3.683594 C 36.574219 4.328125 35.054688 4.75 33.503906 4.933594 C 35.136719 3.949219 36.351562 2.394531 36.9375 0.570312 C 35.402344 1.484375 33.730469 2.136719 31.984375 2.484375 C 29.570312 -0.113281 25.722656 -0.753906 22.613281 0.929688 C 19.5 2.613281 17.898438 6.199219 18.699219 9.675781 C 12.4375 9.34375 6.605469 6.355469 2.648438 1.441406 C 0.589844 5.046875 1.644531 9.640625 5.0625 11.960938 C 3.820312 11.921875 2.613281 11.574219 1.527344 10.964844 L 1.527344 11.070312 C 1.527344 14.820312 4.144531 18.050781 7.78125 18.796875 C 6.636719 19.109375 5.433594 19.160156 4.265625 18.933594 C 5.289062 22.140625 8.21875 24.328125 11.546875 24.390625 C 8.292969 27 4.136719 28.191406 0.00390625 27.695312 C 3.574219 30.011719 7.722656 31.238281 11.964844 31.234375 C 26.304688 31.234375 34.140625 19.230469 34.140625 8.816406 L 34.140625 7.804688 C 35.660156 6.671875 36.972656 5.28125 38.003906 3.683594 Z M 38.011719 3.683594 "/>
</g>
</svg>
